<svg width="218" height="164" viewBox="0 0 218 164" fill="none" xmlns="http://www.w3.org/2000/svg">
<path fill-rule="evenodd" clip-rule="evenodd" d="M72.5906 136.308L67.1501 149.782L61.7097 136.308H53.8996L67.0757 163.886H67.2246L80.4007 136.308H72.5906Z" fill="white"/>
<path fill-rule="evenodd" clip-rule="evenodd" d="M93.9406 157.596C89.7966 157.596 86.8903 154.462 86.8903 149.97C86.8903 145.414 89.777 142.234 93.9406 142.234C98.1041 142.234 100.991 145.414 100.991 149.97C100.991 154.447 98.1041 157.596 93.9406 157.596ZM93.9406 135.826C85.8367 135.826 79.7695 141.787 79.7695 149.97C79.7695 158.078 85.8367 164 93.9406 164C102.044 164 108.115 158.078 108.115 149.97C108.115 141.787 102.009 135.826 93.9406 135.826Z" fill="white"/>
<path fill-rule="evenodd" clip-rule="evenodd" d="M134.296 136.308H126.004L118.531 149.378V136.308H111.496V163.518H116.792L122.118 155.634L127.598 163.518H136.035L126.078 149.378L134.296 136.308Z" fill="white"/>
<path fill-rule="evenodd" clip-rule="evenodd" d="M147.55 155.065L150.029 148.7L152.508 155.065H147.55ZM149.951 135.826L136.332 163.518H144.213L145.474 160.334H154.577L155.834 163.518H163.718L150.1 135.826H149.951Z" fill="white"/>
<path fill-rule="evenodd" clip-rule="evenodd" d="M217.622 54.6758C182.418 19.4591 147.017 0 108.825 0C70.6318 0 35.1886 19.4591 0 54.6758C35.1886 89.8925 70.6044 109.352 108.825 109.352C147.045 109.352 182.418 89.8925 217.622 54.6758ZM108.825 13.8579C116.898 13.8579 124.789 16.2519 131.501 20.737C138.214 25.2221 143.445 31.597 146.535 39.0555C149.624 46.514 150.432 54.7211 148.857 62.639C147.283 70.5569 143.395 77.8299 137.687 83.5384C131.978 89.2469 124.705 93.1344 116.788 94.7094C108.87 96.2843 100.663 95.476 93.2046 92.3866C85.7463 89.2972 79.3715 84.0655 74.8865 77.353C70.4015 70.6405 68.0076 62.7488 68.0076 54.6758C68.0071 49.3154 69.0625 44.0074 71.1135 39.0549C73.1646 34.1024 76.1712 29.6025 79.9615 25.8121C83.7518 22.0217 88.2516 19.0151 93.204 16.964C98.1564 14.9129 103.464 13.8574 108.825 13.8579Z" fill="white"/>
<path fill-rule="evenodd" clip-rule="evenodd" d="M132.345 54.6757L97.043 34.2883V75.0631L132.345 54.6757Z" fill="white"/>
</svg>
